PathFileType	3	(X/Y/Z)	RCH0000002 BBF 14.c3d
DataRate	CameraRate	NumFrames	NumMarkers	Units	OrigDataRate	OrigDataStartFrame	OrigNumFrames
100.0	100.0	13	23	mm	100.0	272	502
Frame#	Time	RASI			LPAT			LKNE			LANK			LMED			LHEE			RPAT			RKNE			RANK			RMED			RHEE			RTOE			LTOE			MAN			LASI			T2			T10			LPSI			RPSI			RTHI			LTHI			RTIB			LTIB			
		X1	Y1	Z1	X2	Y2	Z2	X3	Y3	Z3	X4	Y4	Z4	X5	Y5	Z5	X6	Y6	Z6	X7	Y7	Z7	X8	Y8	Z8	X9	Y9	Z9	X10	Y10	Z10	X11	Y11	Z11	X12	Y12	Z12	X13	Y13	Z13	X14	Y14	Z14	X15	Y15	Z15	X16	Y16	Z16	X17	Y17	Z17	X18	Y18	Z18	X19	Y19	Z19	X20	Y20	Z20	X21	Y21	Z21	X22	Y22	Z22	X23	Y23	Z23	

272	2.710	-404.32209	-162.27098	677.12295	-324.65579	-8.17057	408.83706	-376.70722	39.97716	364.82148	-500.75925	38.61084	126.36004	-476.40196	-28.98589	130.48762	-517.85397	-10.84347	159.53796	-454.68104	-104.39831	385.51659	-497.20151	-162.77180	356.79958	-566.28709	-158.45955	89.01539	-588.60264	-95.12450	106.88488	-613.97828	-140.43846	127.51900	-532.47965	-112.66385	74.56399	-447.74108	17.01907	104.67233	-384.71857	-44.76187	974.02261	-408.97859	11.98633	655.94015	-518.81897	-63.13564	989.11662	-500.20607	-57.16772	805.44909	-516.50646	-35.36353	712.00474	-513.05576	-104.69815	723.69948	-449.70124	-232.13864	458.19965	-418.46088	105.81596	484.59143	-521.41896	-228.02142	238.57069	-441.67562	100.33378	272.31890	
273	2.720	-397.26877	-163.04568	676.86804	-309.10617	-9.93394	411.47135	-358.90486	38.76546	365.93267	-473.39906	39.54106	123.14883	-450.54208	-28.46615	128.11090	-492.75277	-9.41422	155.66589	-451.84808	-105.79860	384.86818	-495.34727	-163.80680	357.10738	-566.05667	-158.22372	89.48721	-587.60237	-94.71739	107.65562	-613.29395	-139.83989	128.39389	-531.89622	-112.70237	74.68162	-420.10925	16.79994	103.38987	-374.92407	-43.85183	972.74256	-398.55759	11.22325	655.11572	-508.93650	-63.08372	988.93753	-491.81067	-56.29300	804.82012	-507.44328	-33.65044	710.27408	-505.11897	-102.99303	722.53599	-446.68796	-233.02480	458.04220	-403.64820	105.12351	484.40451	-521.22024	-228.63178	238.73701	-418.74028	100.31136	271.16851	
274	2.730	-390.09462	-163.74057	676.38440	-294.17740	-12.41126	413.47042	-341.47047	37.05384	366.55471	-445.88618	40.50991	119.74193	-424.86881	-27.95685	125.37857	-467.67804	-7.85705	151.42464	-448.66057	-107.00724	384.06829	-493.04301	-164.72742	357.27829	-565.82959	-158.01529	89.93074	-586.61985	-94.34341	108.39459	-612.57924	-139.27204	129.29347	-531.33454	-112.75391	74.76724	-392.54994	16.44584	101.87358	-365.04154	-42.81637	971.06111	-388.11266	10.46026	653.86866	-498.97148	-62.91569	988.39256	-483.37020	-55.29005	803.83750	-498.33246	-31.92198	708.11594	-497.11114	-101.25142	721.03306	-443.24607	-233.79245	457.73947	-388.81655	104.02190	483.76265	-520.70814	-229.14048	238.82946	-395.68115	100.01964	269.75535	
275	2.740	-382.71988	-164.37177	675.69430	-279.95739	-15.65976	414.79516	-324.49962	34.80273	366.68466	-418.45063	41.42324	116.16950	-399.60402	-27.53195	122.29257	-442.83780	-6.26499	146.84014	-445.06707	-108.01658	383.12629	-490.22570	-165.53172	357.31396	-565.57034	-157.84067	90.36535	-585.62136	-94.01174	109.12133	-611.79282	-138.74561	130.24058	-530.77224	-112.81576	74.82383	-365.30277	15.89170	100.13004	-355.08551	-41.64790	969.04829	-377.60215	9.69204	652.25328	-488.93714	-62.60080	987.50377	-474.82660	-54.19028	802.53636	-489.10723	-30.22647	705.61230	-488.95769	-99.52747	719.24569	-439.28761	-234.44340	457.28335	-373.94035	102.48172	482.71487	-519.83324	-229.55479	238.86122	-372.67733	99.37671	268.10346	
276	2.750	-375.06824	-164.95732	674.81674	-266.50768	-19.69458	415.41656	-308.07506	32.00185	366.32232	-391.37922	42.18578	112.46387	-375.01184	-27.26525	118.87569	-418.48613	-4.73125	141.96233	-440.99705	-108.83502	382.04760	-486.82520	-166.22146	357.21194	-565.22221	-157.71595	90.80812	-584.55455	-93.74356	109.85691	-610.86993	-138.28715	131.25831	-530.17245	-112.89170	74.85080	-338.65620	15.07331	98.16760	-345.06895	-40.34248	966.77873	-366.98588	8.91551	650.33007	-478.84565	-62.11713	986.29790	-466.12112	-53.03313	800.95536	-479.70400	-28.61045	702.84982	-480.58640	-97.87492	717.22999	-434.73943	-234.98757	456.66852	-359.00627	100.49353	481.31128	-518.52506	-229.89078	238.84204	-349.92802	98.31717	266.22940	
277	2.760	-367.07111	-165.51697	673.76645	-253.85743	-24.47868	415.32107	-292.26479	28.67720	365.47341	-365.01397	42.71147	108.66105	-351.39023	-27.22086	115.17307	-394.91827	-3.34353	136.86562	-436.36348	-109.48577	380.83138	-482.76687	-166.80215	356.96385	-564.70914	-157.66483	91.27199	-583.35016	-93.56950	110.62154	-609.72455	-137.93588	132.36774	-529.48536	-112.99117	74.84301	-312.93995	13.94044	95.99917	-335.00258	-38.89999	964.32820	-356.22834	8.12925	648.16376	-468.70737	-61.45271	984.80543	-457.19728	-51.86460	799.13561	-470.06685	-27.11766	699.91666	-471.93175	-96.34559	715.04092	-429.54621	-235.44257	455.89174	-344.02019	98.07203	479.60179	-516.69425	-230.17160	238.77570	-327.65487	96.80122	264.14689	
278	2.770	-358.67114	-166.07121	672.55349	-242.00022	-29.91543	414.51632	-277.12211	24.89638	364.15382	-339.74173	42.93462	104.80202	-329.05604	-27.44302	111.25204	-372.45846	-2.17720	131.64699	-431.06841	-110.00307	379.46917	-477.97552	-167.28189	356.55430	-563.94007	-157.71447	91.76464	-581.92524	-93.52429	111.43226	-608.25391	-137.73699	133.58585	-528.65151	-113.12698	74.79060	-288.51013	12.46999	93.64505	-324.89464	-37.32426	961.77066	-345.30219	7.33351	645.82210	-458.53046	-60.60622	983.06011	-448.00390	-50.73577	797.11993	-460.15189	-25.78878	696.89985	-462.93874	-94.98838	712.73052	-423.67115	-235.83145	454.95056	-329.01320	95.26018	477.63637	-514.23860	-230.42388	238.65848	-306.10163	94.82395	261.87133	
279	2.780	-349.82471	-166.63950	671.18321	-230.89431	-35.84560	413.03603	-262.68747	20.77115	362.39396	-315.97372	42.82094	100.93343	-308.32413	-27.94653	107.20007	-351.44045	-1.28726	126.42169	-425.01081	-110.42662	377.94469	-472.38010	-167.66960	355.96100	-562.81545	-157.88998	92.28853	-580.18764	-93.63975	112.30120	-606.34480	-137.73269	134.92401	-527.60618	-113.31216	74.67987	-265.72737	10.67693	91.13525	-314.75103	-35.62330	959.17584	-334.19181	6.53077	643.37518	-448.32075	-59.58731	981.09874	-438.49797	-49.70119	794.95270	-449.93089	-24.66177	693.88355	-453.56605	-93.84896	710.34689	-417.09423	-236.17908	453.84175	-314.04588	92.13243	475.46657	-511.05201	-230.67327	238.47892	-285.52908	92.42381	259.42354	
280	2.790	-340.50330	-167.23782	669.65703	-220.46686	-42.04996	410.94310	-248.99152	16.45628	360.24227	-294.11536	42.37677	97.10791	-289.48253	-28.70913	103.12097	-332.18165	-0.69947	121.31703	-418.09532	-110.79567	376.23524	-465.91863	-167.97300	355.15621	-561.23453	-158.20856	92.84186	-578.04101	-93.93752	113.23460	-603.88058	-137.95262	136.38711	-526.28390	-113.55671	74.49506	-244.92945	8.62089	88.51070	-304.57584	-33.80956	956.60751	-322.89644	5.72679	640.89498	-438.08200	-58.41651	978.96128	-428.64724	-48.81699	792.67984	-439.39409	-23.77230	690.94769	-443.78830	-92.96941	707.93377	-409.80914	-236.50798	452.56016	-299.21021	88.79643	473.14757	-507.03492	-230.93976	238.21918	-266.20314	89.68857	256.83226	
281	2.800	-330.69396	-167.87595	667.97378	-210.62207	-48.25853	408.33008	-236.05886	12.14381	357.76706	-274.52903	41.65494	93.38357	-272.76621	-29.66769	99.12940	-314.95379	-0.40196	116.46474	-410.24071	-111.14362	374.31441	-458.54251	-168.19704	354.10952	-559.10260	-158.67471	93.42073	-575.38955	-94.42293	114.23281	-600.74818	-138.40567	137.97384	-524.62231	-113.86503	74.22131	-226.40147	6.40680	85.82318	-294.37222	-31.90020	954.12250	-311.43243	4.93197	638.45485	-427.81633	-57.12474	976.69102	-418.43230	-48.13885	790.34911	-428.55159	-23.15386	688.16709	-433.59734	-92.38780	705.53082	-401.81939	-236.83444	451.09846	-284.62825	85.39176	470.74019	-502.10441	-231.23400	237.85791	-248.37612	86.75669	254.13553	
282	2.810	-320.39887	-168.55482	666.13178	-201.25248	-54.16661	405.31640	-223.91144	8.05250	355.05598	-257.49460	40.75508	89.82249	-258.33327	-30.71927	95.34390	-299.95390	-0.33929	111.99245	-401.38687	-111.49424	372.15625	-450.21989	-168.34300	352.79181	-556.33703	-159.27729	94.02209	-572.14238	-95.08129	115.29145	-596.84445	-139.07469	139.67785	-522.56454	-114.23474	73.84816	-210.34731	4.17841	83.13343	-284.14341	-29.91727	951.77025	-299.83425	4.16249	636.12850	-417.52504	-55.75243	974.33463	-407.84806	-47.71943	788.01012	-417.43333	-22.83725	685.61064	-423.00245	-92.13720	703.17434	-393.13459	-237.16560	449.44831	-270.44727	82.08476	468.31209	-496.20241	-231.55512	237.37461	-232.26272	83.81217	251.38099	
283	2.820	-309.63442	-169.26452	664.13148	-192.25245	-59.45694	402.04211	-212.57103	4.41265	352.21293	-243.17424	39.81725	86.48800	-246.24723	-31.72826	91.87892	-287.28059	-0.41121	108.01485	-391.49945	-111.85978	369.74023	-440.93752	-168.40845	351.18005	-552.87144	-159.98946	94.64730	-568.21692	-95.87755	116.40345	-592.08127	-139.91526	141.48996	-520.05976	-114.65725	73.37359	-196.86694	2.10498	80.50761	-273.89379	-27.88775	949.59292	-288.15369	3.44109	633.98843	-407.20949	-54.34815	971.94202	-396.90439	-47.60555	785.71422	-406.08733	-22.84898	683.34043	-412.02951	-92.24393	700.89832	-383.76765	-237.49814	447.60295	-256.83108	79.05872	465.93754	-489.30059	-231.89072	236.75487	-218.01467	81.07163	248.62496	
284	2.830	-298.42991	-169.98343	661.97839	-183.53196	-63.82641	398.65858	-202.06011	1.44732	349.35224	-231.58880	39.00823	83.44047	-236.46858	-32.53944	88.83633	-276.92023	-0.47836	104.62522	-380.57188	-112.24116	367.05666	-430.70096	-168.38812	349.26223	-548.65756	-160.77151	95.30565	-563.54146	-96.75942	117.56194	-586.38967	-140.85904	143.40098	-517.06174	-115.12001	72.80787	-185.94366	0.36258	78.01234	-263.62992	-25.84325	947.62597	-276.45730	2.79687	632.10352	-396.87212	-52.96677	969.56580	-385.62592	-47.83516	783.51391	-394.57630	-23.20892	681.41067	-400.71915	-92.72526	698.73545	-373.73288	-237.81861	445.56110	-243.94817	76.49952	463.69547	-481.40151	-232.21884	235.99602	-205.69948	78.76403	245.92993	
